<svg width="1650" height="241" viewBox="0 0 1650 241" fill="none" xmlns="http://www.w3.org/2000/svg">
<g opacity="0.2">
<path d="M23.18 69.2571L0.591187 35.1286L23.18 1H68.3599L90.9511 35.1286L68.3599 69.2571H23.18Z" stroke="#64748B" stroke-width="0.51779"/>
<path d="M90.8216 103.257L68.2328 69.1286L90.8216 35H136.002L158.59 69.1286L136.002 103.257H90.8216Z" stroke="#64748B" stroke-width="0.51779"/>
<path d="M158.466 69.2571L135.874 35.1286L158.466 1H203.645L226.234 35.1286L203.645 69.2571H158.466Z" stroke="#64748B" stroke-width="0.51779"/>
<path d="M226.105 103.257L203.516 69.1286L226.105 35H271.285L293.874 69.1286L271.285 103.257H226.105Z" stroke="#64748B" stroke-width="0.51779"/>
<path d="M293.749 69.2571L271.158 35.1286L293.749 1H338.929L361.518 35.1286L338.929 69.2571H293.749Z" stroke="#64748B" stroke-width="0.51779"/>
<path d="M361.388 103.257L338.799 69.1286L361.388 35H406.568L429.159 69.1286L406.568 103.257H361.388Z" stroke="#64748B" stroke-width="0.51779"/>
<path d="M429.032 69.2571L406.441 35.1286L429.032 1H474.212L496.801 35.1286L474.212 69.2571H429.032Z" stroke="#64748B" stroke-width="0.51779"/>
<path d="M497.82 103.257L475.229 69.1286L497.82 35H543L565.589 69.1286L543 103.257H497.82Z" stroke="#64748B" stroke-width="0.51779"/>
<path d="M565.462 69.2571L542.871 35.1286L565.462 1H610.642L633.231 35.1286L610.642 69.2571H565.462Z" stroke="#64748B" stroke-width="0.51779"/>
<path d="M633.101 103.257L610.512 69.1286L633.101 35H678.279L700.87 69.1286L678.279 103.257H633.101Z" stroke="#64748B" stroke-width="0.51779"/>
<path d="M700.747 69.2571L678.154 35.1286L700.747 1H745.925L768.514 35.1286L745.925 69.2571H700.747Z" stroke="#64748B" stroke-width="0.51779"/>
<path d="M768.384 103.257L745.795 69.1286L768.384 35H813.562L836.153 69.1286L813.562 103.257H768.384Z" stroke="#64748B" stroke-width="0.51779"/>
<path d="M836.028 69.2571L813.437 35.1286L836.028 1H881.206L903.797 35.1286L881.206 69.2571H836.028Z" stroke="#64748B" stroke-width="0.51779"/>
<path d="M903.667 103.257L881.079 69.1286L903.667 35H948.847L971.439 69.1286L948.847 103.257H903.667Z" stroke="#64748B" stroke-width="0.51779"/>
<path d="M971.312 69.2571L948.72 35.1286L971.312 1H1016.49L1039.08 35.1286L1016.49 69.2571H971.312Z" stroke="#64748B" stroke-width="0.51779"/>
<path d="M1038.95 103.257L1016.36 69.1286L1038.95 35H1084.13L1106.72 69.1286L1084.13 103.257H1038.95Z" stroke="#64748B" stroke-width="0.51779"/>
<path d="M1106.6 69.2571L1084 35.1286L1106.6 1H1151.77L1174.36 35.1286L1151.77 69.2571H1106.6Z" stroke="#64748B" stroke-width="0.51779"/>
<path d="M1174.23 103.257L1151.65 69.1286L1174.23 35H1219.41L1242 69.1286L1219.41 103.257H1174.23Z" stroke="#64748B" stroke-width="0.51779"/>
<path d="M1241.88 69.2571L1219.29 35.1286L1241.88 1H1287.06L1309.65 35.1286L1287.06 69.2571H1241.88Z" stroke="#64748B" stroke-width="0.51779"/>
<path d="M1309.52 103.257L1286.93 69.1286L1309.52 35H1354.7L1377.29 69.1286L1354.7 103.257H1309.52Z" stroke="#64748B" stroke-width="0.51779"/>
<path d="M1377.16 69.2571L1354.57 35.1286L1377.16 1H1422.34L1444.93 35.1286L1422.34 69.2571H1377.16Z" stroke="#64748B" stroke-width="0.51779"/>
<path d="M1445.95 103.257L1423.36 69.1286L1445.95 35H1491.13L1513.72 69.1286L1491.13 103.257H1445.95Z" stroke="#64748B" stroke-width="0.51779"/>
<path d="M1513.59 69.2571L1491 35.1286L1513.59 1H1558.77L1581.36 35.1286L1558.77 69.2571H1513.59Z" stroke="#64748B" stroke-width="0.51779"/>
<path d="M1581.23 103.257L1558.64 69.1286L1581.23 35H1626.41L1649 69.1286L1626.41 103.257H1581.23Z" stroke="#64748B" stroke-width="0.51779"/>
</g>
<g opacity="0.2">
<path d="M23.18 137.257L0.591187 103.129L23.18 69H68.3599L90.9511 103.129L68.3599 137.257H23.18Z" stroke="#64748B" stroke-width="0.51779"/>
<path d="M90.8216 171.257L68.2328 137.129L90.8216 103H136.002L158.59 137.129L136.002 171.257H90.8216Z" stroke="#64748B" stroke-width="0.51779"/>
<path d="M158.466 137.257L135.874 103.129L158.466 69H203.645L226.234 103.129L203.645 137.257H158.466Z" stroke="#64748B" stroke-width="0.51779"/>
<path d="M226.105 171.257L203.516 137.129L226.105 103H271.285L293.874 137.129L271.285 171.257H226.105Z" stroke="#64748B" stroke-width="0.51779"/>
<path d="M293.749 137.257L271.158 103.129L293.749 69H338.929L361.518 103.129L338.929 137.257H293.749Z" stroke="#64748B" stroke-width="0.51779"/>
<path d="M361.388 171.257L338.799 137.129L361.388 103H406.568L429.159 137.129L406.568 171.257H361.388Z" stroke="#64748B" stroke-width="0.51779"/>
<path d="M429.032 137.257L406.441 103.129L429.032 69H474.212L496.801 103.129L474.212 137.257H429.032Z" stroke="#64748B" stroke-width="0.51779"/>
<path d="M497.82 171.257L475.229 137.129L497.82 103H543L565.589 137.129L543 171.257H497.82Z" stroke="#64748B" stroke-width="0.51779"/>
<path d="M565.462 137.257L542.871 103.129L565.462 69H610.642L633.231 103.129L610.642 137.257H565.462Z" stroke="#64748B" stroke-width="0.51779"/>
<path d="M633.101 171.257L610.512 137.129L633.101 103H678.279L700.87 137.129L678.279 171.257H633.101Z" stroke="#64748B" stroke-width="0.51779"/>
<path d="M700.747 137.257L678.154 103.129L700.747 69H745.925L768.514 103.129L745.925 137.257H700.747Z" stroke="#64748B" stroke-width="0.51779"/>
<path d="M768.384 171.257L745.795 137.129L768.384 103H813.562L836.153 137.129L813.562 171.257H768.384Z" stroke="#64748B" stroke-width="0.51779"/>
<path d="M836.028 137.257L813.437 103.129L836.028 69H881.206L903.797 103.129L881.206 137.257H836.028Z" stroke="#64748B" stroke-width="0.51779"/>
<path d="M903.667 171.257L881.079 137.129L903.667 103H948.847L971.439 137.129L948.847 171.257H903.667Z" stroke="#64748B" stroke-width="0.51779"/>
<path d="M971.312 137.257L948.72 103.129L971.312 69H1016.49L1039.08 103.129L1016.49 137.257H971.312Z" stroke="#64748B" stroke-width="0.51779"/>
<path d="M1038.95 171.257L1016.36 137.129L1038.95 103H1084.13L1106.72 137.129L1084.13 171.257H1038.95Z" stroke="#64748B" stroke-width="0.51779"/>
<path d="M1106.6 137.257L1084 103.129L1106.6 69H1151.77L1174.36 103.129L1151.77 137.257H1106.6Z" stroke="#64748B" stroke-width="0.51779"/>
<path d="M1174.23 171.257L1151.65 137.129L1174.23 103H1219.41L1242 137.129L1219.41 171.257H1174.23Z" stroke="#64748B" stroke-width="0.51779"/>
<path d="M1241.88 137.257L1219.29 103.129L1241.88 69H1287.06L1309.65 103.129L1287.06 137.257H1241.88Z" stroke="#64748B" stroke-width="0.51779"/>
<path d="M1309.52 171.257L1286.93 137.129L1309.52 103H1354.7L1377.29 137.129L1354.7 171.257H1309.52Z" stroke="#64748B" stroke-width="0.51779"/>
<path d="M1377.16 137.257L1354.57 103.129L1377.16 69H1422.34L1444.93 103.129L1422.34 137.257H1377.16Z" stroke="#64748B" stroke-width="0.51779"/>
<path d="M1445.95 171.257L1423.36 137.129L1445.95 103H1491.13L1513.72 137.129L1491.13 171.257H1445.95Z" stroke="#64748B" stroke-width="0.51779"/>
<path d="M1513.59 137.257L1491 103.129L1513.59 69H1558.77L1581.36 103.129L1558.77 137.257H1513.59Z" stroke="#64748B" stroke-width="0.51779"/>
<path d="M1581.23 171.257L1558.64 137.129L1581.23 103H1626.41L1649 137.129L1626.41 171.257H1581.23Z" stroke="#64748B" stroke-width="0.51779"/>
</g>
<g opacity="0.2">
<path d="M23.18 206.257L0.591187 172.129L23.18 138H68.3599L90.9511 172.129L68.3599 206.257H23.18Z" stroke="#64748B" stroke-width="0.51779"/>
<path d="M90.8216 240.257L68.2328 206.129L90.8216 172H136.002L158.59 206.129L136.002 240.257H90.8216Z" stroke="#64748B" stroke-width="0.51779"/>
<path d="M158.466 206.257L135.874 172.129L158.466 138H203.645L226.234 172.129L203.645 206.257H158.466Z" stroke="#64748B" stroke-width="0.51779"/>
<path d="M226.105 240.257L203.516 206.129L226.105 172H271.285L293.874 206.129L271.285 240.257H226.105Z" stroke="#64748B" stroke-width="0.51779"/>
<path d="M293.749 206.257L271.158 172.129L293.749 138H338.929L361.518 172.129L338.929 206.257H293.749Z" stroke="#64748B" stroke-width="0.51779"/>
<path d="M361.388 240.257L338.799 206.129L361.388 172H406.568L429.159 206.129L406.568 240.257H361.388Z" stroke="#64748B" stroke-width="0.51779"/>
<path d="M429.032 206.257L406.441 172.129L429.032 138H474.212L496.801 172.129L474.212 206.257H429.032Z" stroke="#64748B" stroke-width="0.51779"/>
<path d="M497.82 240.257L475.229 206.129L497.82 172H543L565.589 206.129L543 240.257H497.82Z" stroke="#64748B" stroke-width="0.51779"/>
<path d="M565.462 206.257L542.871 172.129L565.462 138H610.642L633.231 172.129L610.642 206.257H565.462Z" stroke="#64748B" stroke-width="0.51779"/>
<path d="M633.101 240.257L610.512 206.129L633.101 172H678.279L700.87 206.129L678.279 240.257H633.101Z" stroke="#64748B" stroke-width="0.51779"/>
<path d="M700.747 206.257L678.154 172.129L700.747 138H745.925L768.514 172.129L745.925 206.257H700.747Z" stroke="#64748B" stroke-width="0.51779"/>
<path d="M768.384 240.257L745.795 206.129L768.384 172H813.562L836.153 206.129L813.562 240.257H768.384Z" stroke="#64748B" stroke-width="0.51779"/>
<path d="M836.028 206.257L813.437 172.129L836.028 138H881.206L903.797 172.129L881.206 206.257H836.028Z" stroke="#64748B" stroke-width="0.51779"/>
<path d="M903.667 240.257L881.079 206.129L903.667 172H948.847L971.439 206.129L948.847 240.257H903.667Z" stroke="#64748B" stroke-width="0.51779"/>
<path d="M971.312 206.257L948.72 172.129L971.312 138H1016.49L1039.08 172.129L1016.49 206.257H971.312Z" stroke="#64748B" stroke-width="0.51779"/>
<path d="M1038.95 240.257L1016.36 206.129L1038.95 172H1084.13L1106.72 206.129L1084.13 240.257H1038.95Z" stroke="#64748B" stroke-width="0.51779"/>
<path d="M1106.6 206.257L1084 172.129L1106.6 138H1151.77L1174.36 172.129L1151.77 206.257H1106.6Z" stroke="#64748B" stroke-width="0.51779"/>
<path d="M1174.23 240.257L1151.65 206.129L1174.23 172H1219.41L1242 206.129L1219.41 240.257H1174.23Z" stroke="#64748B" stroke-width="0.51779"/>
<path d="M1241.88 206.257L1219.29 172.129L1241.88 138H1287.06L1309.65 172.129L1287.06 206.257H1241.88Z" stroke="#64748B" stroke-width="0.51779"/>
<path d="M1309.52 240.257L1286.93 206.129L1309.52 172H1354.7L1377.29 206.129L1354.7 240.257H1309.52Z" stroke="#64748B" stroke-width="0.51779"/>
<path d="M1377.16 206.257L1354.57 172.129L1377.16 138H1422.34L1444.93 172.129L1422.34 206.257H1377.16Z" stroke="#64748B" stroke-width="0.51779"/>
<path d="M1445.95 240.257L1423.36 206.129L1445.95 172H1491.13L1513.72 206.129L1491.13 240.257H1445.95Z" stroke="#64748B" stroke-width="0.51779"/>
<path d="M1513.59 206.257L1491 172.129L1513.59 138H1558.77L1581.36 172.129L1558.77 206.257H1513.59Z" stroke="#64748B" stroke-width="0.51779"/>
<path d="M1581.23 240.257L1558.64 206.129L1581.23 172H1626.41L1649 206.129L1626.41 240.257H1581.23Z" stroke="#64748B" stroke-width="0.51779"/>
</g>
</svg>
