<svg width="22" height="22" viewBox="0 0 22 22" fill="none" xmlns="http://www.w3.org/2000/svg">
<path d="M19.4228 0H2.57727C1.15663 0 0 1.01198 0 2.26601V17.138C0 18.392 1.15655 19.404 2.57718 19.404H16.8332L16.1668 17.369L17.776 18.678L19.2971 19.91L22 22V2.26601C22 1.01198 20.8435 0 19.4228 0ZM14.5703 14.3661C14.5703 14.3661 14.1177 13.893 13.7405 13.475C15.3875 13.068 16.016 12.166 16.016 12.166C15.5005 12.463 15.0103 12.6721 14.5703 12.815C13.9417 13.046 13.3383 13.2 12.7475 13.288C11.5405 13.486 10.4343 13.431 9.49145 13.277C8.77482 13.156 8.15882 12.98 7.64345 12.804C7.35427 12.705 7.04 12.584 6.72564 12.43C6.688 12.408 6.65027 12.397 6.61255 12.375C6.58745 12.364 6.57482 12.353 6.56227 12.342C6.336 12.232 6.21027 12.155 6.21027 12.155C6.21027 12.155 6.81373 13.0351 8.41027 13.453C8.03318 13.8711 7.568 14.366 7.568 14.366C4.78964 14.289 3.73373 12.694 3.73373 12.694C3.73373 9.15203 5.544 6.281 5.544 6.281C7.35427 5.09299 9.07655 5.126 9.07655 5.126L9.20227 5.25804C6.93945 5.8299 5.896 6.69901 5.896 6.69901C5.896 6.69901 6.17255 6.56704 6.63764 6.38003C7.98282 5.86299 9.05145 5.72004 9.49145 5.68703C9.56682 5.67598 9.62973 5.665 9.70518 5.665C10.5476 5.56897 11.4002 5.5616 12.2446 5.64304C13.4388 5.76403 14.7212 6.07203 16.0285 6.69901C16.0285 6.69901 15.0355 5.87404 12.8983 5.30203L13.0743 5.12607C13.0743 5.12607 14.7965 5.09299 16.6068 6.28107C16.6068 6.28107 18.4172 9.15203 18.4172 12.694C18.4172 12.694 17.3485 14.2891 14.5703 14.3661ZM8.72455 9.22903C8.008 9.22903 7.44236 9.77901 7.44236 10.45C7.44236 11.121 8.02055 11.671 8.72455 11.671C9.44118 11.671 10.0068 11.121 10.0068 10.45C10.0195 9.77901 9.44109 9.22903 8.72455 9.22903ZM13.3132 9.22903C12.5965 9.22903 12.0308 9.77901 12.0308 10.45C12.0308 11.121 12.6092 11.671 13.3132 11.671C14.0297 11.671 14.5954 11.121 14.5954 10.45C14.5954 9.77901 14.0297 9.22903 13.3132 9.22903Z" fill="black"/>
</svg>
