<svg xmlns="http://www.w3.org/2000/svg" width="442" height="100" fill="none" viewBox="0 0 442 100"><g clip-path="url(#clip0_780_2967)"><path fill="#000" d="M204.743 92.6659V0H217.577V87.1429H267.788L267.504 0.09447L280.622 0V92.6659C280.622 96.7166 277.341 100 273.294 100H212.068C208.021 100 204.74 96.7166 204.74 92.6659H204.743Z"/><path fill="#000" d="M377.404 92.6659V0H390.238V87.1429H442V100H384.731C380.684 100 377.404 96.7166 377.404 92.6659Z"/><path fill="#000" d="M125.602 100H138.436V56.5714H186.798V43.7143H138.436V12.8571H186.008C187.422 12.8571 188.711 12.0438 189.316 10.765L194.429 0H132.929C128.882 0 125.602 3.28341 125.602 7.3341V100Z"/><path fill="#000" d="M294.598 7.3341C294.598 3.28341 297.878 0 301.925 0H363.425L358.312 10.765C357.705 12.0438 356.418 12.8571 355.004 12.8571H307.432V43.7143H355.794V56.5714H307.432V87.1429H363.425V100H301.925C297.878 100 294.598 96.7166 294.598 92.6659V7.3341Z"/><path fill="#00F58C" d="M6.64151 0C2.97429 0 0 2.97696 0 6.64747V100H82.6655C85.4625 100 88.1468 98.8871 90.1243 96.9078L96.821 90.2051C98.7985 88.2258 99.9104 85.5392 99.9104 82.7396V0H6.64151Z"/><path fill="#000" d="M65.2318 12.8572L32.7402 45.3779C31.9345 46.1844 30.841 46.6383 29.6992 46.6383C28.0371 46.6383 26.5223 45.6798 25.811 44.1752L13.2232 17.5369C12.1964 15.3618 13.7803 12.8572 16.1836 12.8572H65.2295H65.2318Z"/><path fill="#000" d="M12.8456 87.1429V55.5C12.8456 53.8134 14.2131 52.4447 15.8982 52.4447H47.5127L12.8456 87.1429Z"/><path fill="#000" d="M50.121 46.6383H39.6557L71.1482 15.1152C72.5939 13.6682 74.553 12.8549 76.5972 12.8549H87.0625L55.57 44.3779C54.1243 45.8249 52.1652 46.6383 50.121 46.6383Z"/></g><defs><clipPath id="clip0_780_2967"><rect width="442" height="100" fill="#fff"/></clipPath></defs></svg>